<svg xmlns="http://www.w3.org/2000/svg" xmlns:xlink="http://www.w3.org/1999/xlink" width="174" height="96" viewBox="0 0 174 96">
    <defs>
        <path id="prefix__a" d="M0.368 0.448H730.8480000000001V538.944H0.368z"/>
        <path id="prefix__c" d="M0.368 0.448H730.8480000000001V538.944H0.368z"/>
        <path id="prefix__e" d="M0.368 0.448H730.8480000000001V538.944H0.368z"/>
        <path id="prefix__g" d="M0.368 0.448H730.8480000000001V538.944H0.368z"/>
        <path id="prefix__i" d="M0.368 0.448H730.8480000000001V538.944H0.368z"/>
        <path id="prefix__k" d="M0.368 0.448H730.8480000000001V538.944H0.368z"/>
        <path id="prefix__m" d="M0.368 0.448H730.8480000000001V538.944H0.368z"/>
        <path id="prefix__o" d="M0.368 0.448H730.8480000000001V538.944H0.368z"/>
        <path id="prefix__q" d="M0.368 0.448H730.8480000000001V538.944H0.368z"/>
        <path id="prefix__s" d="M0.368 0.448H730.8480000000001V538.944H0.368z"/>
        <path id="prefix__u" d="M0.368 0.448H730.8480000000001V538.944H0.368z"/>
        <path id="prefix__w" d="M0.368 0.448H730.8480000000001V538.944H0.368z"/>
        <path id="prefix__y" d="M0.368 0.448H730.8480000000001V538.944H0.368z"/>
        <path id="prefix__A" d="M0.368 0.448H730.8480000000001V538.944H0.368z"/>
        <path id="prefix__C" d="M0.368 0.448H730.8480000000001V538.944H0.368z"/>
        <path id="prefix__E" d="M0.368 0.448H730.8480000000001V538.944H0.368z"/>
        <path id="prefix__G" d="M0.368 0.448H730.8480000000001V538.944H0.368z"/>
        <path id="prefix__I" d="M0.368 0.448H730.8480000000001V538.944H0.368z"/>
        <path id="prefix__K" d="M0.368 0.448H730.8480000000001V538.944H0.368z"/>
        <path id="prefix__M" d="M0.368 0.448H730.8480000000001V538.944H0.368z"/>
        <path id="prefix__O" d="M0.368 0.448H730.8480000000001V538.944H0.368z"/>
        <path id="prefix__Q" d="M0.368 0.448H730.8480000000001V538.944H0.368z"/>
        <path id="prefix__S" d="M0.368 0.448H730.8480000000001V538.944H0.368z"/>
        <path id="prefix__U" d="M0.368 0.448H730.8480000000001V538.944H0.368z"/>
        <path id="prefix__W" d="M0 0H730.48V538.496H0z"/>
    </defs>
    <g fill="none" fill-rule="evenodd">
        <path fill="#FFF" d="M277.6 221.2H357.6V301.2H277.6z" transform="translate(-277 -221)"/>
        <g transform="translate(-277 -221) translate(.133 .2)">
            <mask id="prefix__b" fill="#fff">
                <use xlink:href="#prefix__a"/>
            </mask>
            <path fill="#034EA2" fill-rule="nonzero" d="M354.349 298.959H280.84v-45.605s49.149 4.157 73.509-10.106v55.71z" mask="url(#prefix__b)"/>
            <mask id="prefix__d" fill="#fff">
                <use xlink:href="#prefix__c"/>
            </mask>
            <path fill="#FFF" fill-rule="nonzero" d="M333.118 285.91c1.166-.128 1.841-.383 2.087-.703.245-.32.43-1.216.43-2.687v-14.71c0-1.216-.124-1.984-.492-2.368-.307-.383-.982-.575-2.025-.703v-.64h15.279l.122 4.797h-.797c-.184-1.535-.552-2.494-1.105-2.942-.552-.384-1.656-.64-3.252-.64h-3.927c-.368 0-.613.065-.736.256-.123.128-.184.448-.184.896v7.547h3.559c1.227 0 2.025-.064 2.331-.447.307-.384.614-1.088.798-2.239h.675v6.716h-.675c-.245-1.151-.49-1.855-.798-2.239-.368-.383-1.104-.447-2.331-.447h-3.56v7.42c0 1.214.185 2.046.492 2.366.307.32 1.043.575 2.086.703v.64h-7.977v-.576z" mask="url(#prefix__d)"/>
            <mask id="prefix__f" fill="#fff">
                <use xlink:href="#prefix__e"/>
            </mask>
            <path fill="#FFF" fill-rule="nonzero" d="M304.648 274.589h-5.277v.64c1.043.064 1.718.256 2.025.575.307.32.49 1.152.49 2.43v5.374c0 .383-.06.64-.245.831-.184.192-.613.448-1.288.704-.43.192-.86.256-1.35.384-.491.064-.86.127-1.227.127-2.025 0-3.743-.895-5.155-2.622-1.41-1.727-2.086-4.157-2.086-7.292 0-3.773.675-6.524 2.086-8.123 1.412-1.663 3.007-2.494 4.848-2.494 1.84 0 3.252.703 4.418 2.11.613.832 1.227 2.047 1.84 3.646h.675l-.245-7.1h-.614c-.122.384-.245.64-.43.832-.183.192-.49.256-.858.256-.184 0-.798-.192-1.841-.576-1.104-.384-2.148-.576-3.252-.576-3.068 0-5.522 1.216-7.363 3.71-1.657 2.239-2.516 4.925-2.516 8.123 0 3.582 1.043 6.46 3.19 8.571 1.903 1.92 4.296 2.879 7.057 2.879 1.534 0 3.13-.32 4.725-.96 1.656-.64 2.454-1.215 2.454-1.599v-9.85h-.061z" mask="url(#prefix__f)"/>
            <mask id="prefix__h" fill="#fff">
                <use xlink:href="#prefix__g"/>
            </mask>
            <path fill="#FFF" fill-rule="nonzero" d="M310.845 268.065l7.179 18.485h.43l7.363-19.317v19.317h5.4v-.64c-1.044-.128-1.719-.32-2.026-.703-.306-.32-.43-1.152-.43-2.367v-15.03c0-1.216.124-1.984.43-2.368.307-.383.982-.575 2.025-.703v-.64h-5.645l-6.504 16.95-6.565-16.95h-5.645v.64c1.165.064 1.902.256 2.209.64.306.383.49 1.15.49 2.366v13.752c0 1.79-.184 2.942-.49 3.39-.307.512-1.105.831-2.27.96v.639h4.049v-18.421z" mask="url(#prefix__h)"/>
            <mask id="prefix__j" fill="#fff">
                <use xlink:href="#prefix__i"/>
            </mask>
            <path fill="#F68C59" fill-rule="nonzero" d="M327.35 244.08c-3.251.383-7.362-.577-9.51-1.344-.184-.064-.061-.064-.123 0-.122.192-.245.767-.368 1.023.061-.128.86.576.982.576.123 0 .061-.064-.184.895-.062.256-.123 1.408-.123 1.472.061 0 .982.255 1.227.255h.062c3.742.256 6.258.192 6.38.256.246.128.37-.064.308-.192 0 0 0-.255.184-.511.368-.704.92-1.471 1.288-2.239.184-.256 0-.32-.122-.192" mask="url(#prefix__j)"/>
            <mask id="prefix__l" fill="#fff">
                <use xlink:href="#prefix__k"/>
            </mask>
            <path fill="#F68C59" fill-rule="nonzero" d="M314.895 224.507l1.963.256 5.032 2.174 1.288-.192c-2.086-1.599-5.338-3.262-10.063-3.198l.491 1.152 1.289-.192z" mask="url(#prefix__l)"/>
            <mask id="prefix__n" fill="#fff">
                <use xlink:href="#prefix__m"/>
            </mask>
            <path fill="#F68C59" fill-rule="nonzero" d="M342.384 230.839l-2.393-1.28 3.742-.191-.184-2.942s-3.374-.384-3.743-.384l.062 3.518-3.314-1.727s5.339-2.879 5.4-3.07l4.418 2.75-3.988 3.326zm-10.125-8.507c.246.704 1.534 2.43 1.289 2.942-1.902 3.774-4.173 7.932-5.89 9.595-.246.32-.185 1.023.122 1.215.307.128 1.473.512 2.148.64.552.191.92.383 1.043.64.184.319-.307 1.023-.675 1.406l.123.64c.43.256 1.227.512 2.945 1.535.184.128 0 .512-.123.64s-.92 1.215-1.288 1.47c-.185.129-.062.704 0 .832.92.128 1.227 1.535 1.288 3.006 8.652-2.686 16.322-6.78 21.169-12.92v-11.64h-22.15z" mask="url(#prefix__n)"/>
            <mask id="prefix__p" fill="#fff">
                <use xlink:href="#prefix__o"/>
            </mask>
            <path fill="#F68C59" fill-rule="nonzero" d="M315.508 228.408l.614 2.431c-.675-.256-1.35-.64-2.086-1.343.061 0 .49-.64 1.472-1.088zm3.682-.064c.613.192 1.35.512 2.086.96 0 .32-1.534 1.919-3.743 1.79l2.148-.959-.491-1.79zm-3.866 16.503l-.061-.32c-.614-1.024-1.78-3.39-2.639-4.925-.184-.32-.122-.128-.122-.64.061-.512.061-2.175.061-2.75 0-.64-.061-2.047-.061-2.75-.062-1.664.675-1.28.675-1.28.613.448 3.865.96 4.233 1.024.43.064.307-.064.553-.128.245-.064 3.865-1.216 5.338-4.03-2.393-1.919-6.627-2.622-6.872-2.686l-.92.32c-.369.191-2.21.895-2.332 1.023l-.491.192-.92.447-.062-.191s0-1.344.184-2.559c.061-.384.246-2.11.184-2.366a1.368 1.368 0 010-.704l.062-.192h-5.216c.184 1.215-.123 2.686-.123 3.646 0 1.151.184 1.215.184 2.11v15.991c0 1.535-.306 5.5-.49 7.292 3.129-.192 6.32-.512 9.633-.96-.368-2.11-.92-5.564-.798-5.564z" mask="url(#prefix__p)"/>
            <mask id="prefix__r" fill="#fff">
                <use xlink:href="#prefix__q"/>
            </mask>
            <path fill="#F68C59" fill-rule="nonzero" d="M292.315 232.31c-1.534-1.087-5.584-4.03-5.584-4.03l4.111-1.343-.245 3.774 4.233.256.123-3.966-3.068-.447 2.27-.768 3.805 2.814s-3.437 3.134-5.645 3.71zm12.455 6.652c-.613-1.535-2.515-8.635-3.129-10.042-.49-1.151.062-2.75.798-4.925l.061-.128c.246-.512.184-.767.368-1.151l.184-.384H280.84v29.103s7.302.64 17.488.384c.245-.512.307-.512.49-1.152.185-.64-.981-1.215-1.595-1.599-.245-.128-.122-.703.062-.895 1.656-1.6 2.822-2.687 3.374-2.815 0-.191.123-.511-.061-.64l-.123-.063c-.245-.128-.306-.128-.49-.256v-.064c-.123-.576 0-.832 0-1.79.06-.513.184-.64.368-.768l.184-.128c1.288-.896 1.35-.896 3.743-1.28.552-.128.797-.575.675-1.215l-.185-.192z" mask="url(#prefix__r)"/>
            <g>
                <mask id="prefix__t" fill="#fff">
                    <use xlink:href="#prefix__s"/>
                </mask>
                <path fill="#004696" fill-rule="nonzero" d="M283.97 307.657h.859l3.743 8.7h-1.228l-1.104-2.56h-3.559l-1.043 2.56h-1.227l3.559-8.7zm1.78 4.99l-1.35-3.135-1.228 3.134h2.577z" mask="url(#prefix__t)"/>
            </g>
            <g>
                <mask id="prefix__v" fill="#fff">
                    <use xlink:href="#prefix__u"/>
                </mask>
                <path fill="#004696" fill-rule="nonzero" d="M294.4 312.71l-.92-.575c-.552-.384-.981-.704-1.227-1.088-.245-.32-.368-.767-.368-1.215 0-.703.245-1.215.675-1.663.43-.448 1.043-.64 1.78-.64.674 0 1.35.192 1.902.576v1.407c-.614-.575-1.228-.895-1.903-.895-.368 0-.736.064-.981.256-.246.192-.368.447-.368.703 0 .256.06.512.245.704.184.256.49.448.859.703l.92.576c.982.64 1.534 1.407 1.534 2.43 0 .704-.245 1.28-.675 1.664-.43.447-1.043.64-1.718.64-.797 0-1.534-.257-2.209-.768v-1.471c.614.831 1.412 1.279 2.21 1.279.367 0 .674-.128.92-.32.245-.192.368-.512.368-.831.061-.512-.307-1.024-1.043-1.472" mask="url(#prefix__v)"/>
            </g>
            <g>
                <mask id="prefix__x" fill="#fff">
                    <use xlink:href="#prefix__w"/>
                </mask>
                <path fill="#004696" fill-rule="nonzero" d="M302.868 312.71l-.92-.575c-.552-.384-.982-.704-1.227-1.088-.246-.32-.368-.767-.368-1.215 0-.703.245-1.215.675-1.663.43-.448 1.043-.64 1.779-.64.675 0 1.35.192 1.902.576v1.407c-.613-.575-1.227-.895-1.902-.895-.368 0-.736.064-.982.256-.245.192-.368.447-.368.703 0 .256.061.512.246.704.184.256.49.448.859.703l.92.576c.982.64 1.534 1.407 1.534 2.43 0 .704-.246 1.28-.675 1.664-.43.447-1.043.64-1.718.64-.798 0-1.534-.257-2.209-.768v-1.471c.614.831 1.411 1.279 2.209 1.279.368 0 .675-.128.92-.32.246-.192.368-.512.368-.831.062-.512-.306-1.024-1.043-1.472" mask="url(#prefix__x)"/>
            </g>
            <g>
                <mask id="prefix__z" fill="#fff">
                    <use xlink:href="#prefix__y"/>
                </mask>
                <path fill="#004696" fill-rule="nonzero" d="M315.079 307.657h1.166v4.925c0 .64-.062 1.152-.123 1.472-.123.32-.184.64-.368.831-.184.192-.307.448-.491.576-.675.575-1.534.895-2.577.895-1.105 0-1.964-.32-2.577-.895-.184-.192-.368-.384-.491-.64s-.246-.512-.368-.831a8.343 8.343 0 01-.123-1.535v-4.798h1.166v4.925c0 .832.061 1.408.245 1.664.184.32.43.575.798.767.368.192.798.32 1.288.32.675 0 1.289-.192 1.718-.576.246-.192.43-.448.491-.703.123-.256.184-.768.184-1.472l.062-4.925z" mask="url(#prefix__z)"/>
            </g>
            <g>
                <mask id="prefix__B" fill="#fff">
                    <use xlink:href="#prefix__A"/>
                </mask>
                <path fill="#004696" fill-rule="nonzero" d="M320.847 316.292v-8.635h2.086c.859 0 1.534.192 2.025.64.49.448.736 1.023.736 1.727 0 .512-.123.96-.368 1.28-.246.383-.614.639-1.043.83.245.193.552.448.797.768.246.32.614.832 1.043 1.663.307.512.491.832.675 1.088l.43.64h-1.411l-.369-.576s-.06-.064-.06-.128l-.185-.256-.368-.64-.368-.703a5.14 5.14 0 00-.675-.832c-.184-.192-.368-.384-.552-.448-.185-.064-.43-.128-.86-.128h-.306v3.774l-1.227-.064zm1.595-7.547h-.368v2.75h.43c.613 0 1.042-.064 1.226-.192.246-.128.369-.256.553-.511.122-.192.184-.448.184-.768 0-.256-.062-.512-.184-.768-.123-.191-.307-.383-.614-.447-.245 0-.675-.064-1.227-.064z" mask="url(#prefix__B)"/>
            </g>
            <g>
                <mask id="prefix__D" fill="#fff">
                    <use xlink:href="#prefix__C"/>
                </mask>
                <path fill="#004696" fill-rule="nonzero" d="M331.093 307.657h4.725v1.088h-3.497v2.622h3.374v1.088h-3.374v2.686h3.62v1.087h-4.786l-.062-8.57zm3.437-2.494l-1.35 1.855h-.614l.798-1.855h1.166z" mask="url(#prefix__D)"/>
            </g>
            <g>
                <mask id="prefix__F" fill="#fff">
                    <use xlink:href="#prefix__E"/>
                </mask>
                <path fill="#004696" fill-rule="nonzero" d="M346.679 307.657L347.783 307.657 347.783 316.292 346.617 316.292 346.617 309.576 344.04 312.966 343.856 312.966 341.279 309.576 341.279 316.292 340.052 316.292 340.052 307.657 341.218 307.657 343.918 311.239z" mask="url(#prefix__F)"/>
            </g>
            <g>
                <mask id="prefix__H" fill="#fff">
                    <use xlink:href="#prefix__G"/>
                </mask>
                <path fill="#004696" fill-rule="nonzero" d="M352.508 307.657L357.171 307.657 357.171 308.809 353.674 308.809 353.674 311.431 357.048 311.431 357.048 312.519 353.674 312.519 353.674 315.205 357.294 315.205 357.294 316.292 352.508 316.292z" mask="url(#prefix__H)"/>
            </g>
            <g>
                <mask id="prefix__J" fill="#fff">
                    <use xlink:href="#prefix__I"/>
                </mask>
                <path fill="#004696" fill-rule="nonzero" d="M368.093 307.657L369.197 307.657 369.197 316.292 368.154 316.292 362.632 309.64 362.632 316.292 361.528 316.292 361.528 307.657 362.509 307.657 368.093 314.373z" mask="url(#prefix__J)"/>
            </g>
            <g>
                <mask id="prefix__L" fill="#fff">
                    <use xlink:href="#prefix__K"/>
                </mask>
                <path fill="#004696" fill-rule="nonzero" d="M373.186 307.721L380.119 307.721 380.119 308.809 377.236 308.809 377.236 316.356 376.008 316.356 376.008 308.809 373.186 308.809z" mask="url(#prefix__L)"/>
            </g>
            <g>
                <mask id="prefix__N" fill="#fff">
                    <use xlink:href="#prefix__M"/>
                </mask>
                <path fill="#004696" fill-rule="nonzero" d="M396.257 307.657L397.484 307.657 397.484 316.292 396.257 316.292 396.257 312.582 391.594 312.582 391.594 316.292 390.428 316.292 390.428 307.657 391.594 307.657 391.594 311.431 396.257 311.431z" mask="url(#prefix__N)"/>
            </g>
            <g>
                <mask id="prefix__P" fill="#fff">
                    <use xlink:href="#prefix__O"/>
                </mask>
                <path fill="#004696" fill-rule="nonzero" d="M407.976 307.657h1.166v4.925c0 .64-.061 1.152-.122 1.472-.123.32-.185.64-.369.831-.184.192-.306.448-.49.576-.675.575-1.535.895-2.578.895-1.104 0-1.963-.32-2.577-.895-.184-.192-.368-.384-.49-.64a10.625 10.625 0 01-.369-.831 8.343 8.343 0 01-.122-1.535v-4.798h1.165v4.925c0 .832.062 1.408.246 1.664.184.32.43.575.797.767.369.192.798.32 1.289.32.675 0 1.289-.192 1.718-.576.246-.192.43-.448.491-.703.123-.256.184-.768.184-1.472v-4.925h.061z" mask="url(#prefix__P)"/>
            </g>
            <g>
                <mask id="prefix__R" fill="#fff">
                    <use xlink:href="#prefix__Q"/>
                </mask>
                <path fill="#004696" fill-rule="nonzero" d="M420.31 307.657L421.414 307.657 421.414 316.292 420.248 316.292 420.248 309.576 417.671 312.966 417.487 312.966 414.91 309.576 414.91 316.292 413.683 316.292 413.683 307.657 414.849 307.657 417.61 311.239z" mask="url(#prefix__R)"/>
            </g>
            <g>
                <mask id="prefix__T" fill="#fff">
                    <use xlink:href="#prefix__S"/>
                </mask>
                <path fill="#004696" fill-rule="nonzero" d="M428.777 307.657h.86l3.742 8.7h-1.227l-1.105-2.56h-3.558l-1.044 2.56h-1.227l3.56-8.7zm1.718 4.99l-1.35-3.135-1.227 3.134h2.577z" mask="url(#prefix__T)"/>
            </g>
            <g>
                <mask id="prefix__V" fill="#fff">
                    <use xlink:href="#prefix__U"/>
                </mask>
                <path fill="#004696" fill-rule="nonzero" d="M437.183 307.657H438.349V316.292H437.183z" mask="url(#prefix__V)"/>
            </g>
            <g transform="translate(233.067 7.2)">
                <mask id="prefix__X" fill="#fff">
                    <use xlink:href="#prefix__W"/>
                </mask>
                <path fill="#004696" fill-rule="nonzero" d="M216.634 300.457L217.738 300.457 217.738 309.092 216.757 309.092 211.173 302.44 211.173 309.092 210.068 309.092 210.068 300.457 211.05 300.457 216.634 307.173z" mask="url(#prefix__X)"/>
            </g>
        </g>
    </g>
</svg>
